HIERARCHY
ROOT hip
{
  OFFSET 0 0 0
  CHANNELS 6 Xposition Yposition Zposition Zrotation Yrotation Xrotation
  JOINT abdomen
  {
    OFFSET 0 20.6881 -0.73152
    CHANNELS 3 Zrotation Xrotation Yrotation
    JOINT chest
    {
      OFFSET 0 11.7043 -0.48768
      CHANNELS 3 Zrotation Xrotation Yrotation
      JOINT neck
      {
        OFFSET 0 22.1894 -2.19456
        CHANNELS 3 Zrotation Xrotation Yrotation
        JOINT head
        {
          OFFSET -0.24384 7.07133 1.2192
          CHANNELS 3 Zrotation Xrotation Yrotation
          JOINT leftEye
          {
            OFFSET 4.14528 8.04674 8.04672
            CHANNELS 3 Zrotation Xrotation Yrotation
            End Site
            {
              OFFSET 1 0 0
            }
          }
          JOINT rightEye
          {
            OFFSET -3.6576 8.04674 8.04672
            CHANNELS 3 Zrotation Xrotation Yrotation
            End Site
            {
              OFFSET 1 0 0
            }
          }
        }
      }
      JOINT rCollar
      {
        OFFSET -2.68224 19.2634 -4.8768
        CHANNELS 3 Zrotation Xrotation Yrotation
        JOINT rShldr
        {
          OFFSET -8.77824 -1.95073 1.46304
          CHANNELS 3 Zrotation Xrotation Yrotation
          JOINT rForeArm
          {
            OFFSET -28.1742 -1.7115 0.48768
            CHANNELS 3 Zrotation Xrotation Yrotation
            JOINT rHand
            {
              OFFSET -22.5879 0.773209 7.07136
              CHANNELS 3 Zrotation Xrotation Yrotation
              JOINT rThumb1
              {
                OFFSET -1.2192 -0.487915 3.41376
                CHANNELS 3 Zrotation Xrotation Yrotation
                JOINT rThumb2
                {
                  OFFSET -3.37035 -0.52449 3.41376
                  CHANNELS 3 Zrotation Xrotation Yrotation
                  End Site
                  {
                    OFFSET -1.78271 -1.18214 1.43049
                  }
                }
              }
              JOINT rIndex1
              {
                OFFSET -7.75947 0.938293 5.60832
                CHANNELS 3 Zrotation Xrotation Yrotation
                JOINT rIndex2
                {
                  OFFSET -2.54057 -0.884171 1.56538
                  CHANNELS 3 Zrotation Xrotation Yrotation
                  End Site
                  {
                    OFFSET -1.62519 -0.234802 1.16502
                  }
                }
              }
              JOINT rMid1
              {
                OFFSET -8.24714 1.18213 3.41376
                CHANNELS 3 Zrotation Xrotation Yrotation
                JOINT rMid2
                {
                  OFFSET -3.10165 -0.590103 1.0647
                  CHANNELS 3 Zrotation Xrotation Yrotation
                  End Site
                  {
                    OFFSET -2.48547 -0.328903 0.83742
                  }
                }
              }
              JOINT rRing1
              {
                OFFSET -8.82822 0.546677 1.51678
                CHANNELS 3 Zrotation Xrotation Yrotation
                JOINT rRing2
                {
                  OFFSET -2.60934 -0.819778 -0.0198488
                  CHANNELS 3 Zrotation Xrotation Yrotation
                  End Site
                  {
                    OFFSET -2.33842 -0.294052 0.168128
                  }
                }
              }
              JOINT rPinky1
              {
                OFFSET -8.27202 -0.0477905 -0.4584
                CHANNELS 3 Zrotation Xrotation Yrotation
                JOINT rPinky2
                {
                  OFFSET -1.82734 -0.647385 -0.700984
                  CHANNELS 3 Zrotation Xrotation Yrotation
                  End Site
                  {
                    OFFSET -1.69225 -0.51767 -0.607171
                  }
                }
              }
            }
          }
        }
      }
      JOINT lCollar
      {
        OFFSET 2.68224 19.2634 -4.8768
        CHANNELS 3 Zrotation Xrotation Yrotation
        JOINT lShldr
        {
          OFFSET 8.77824 -1.95073 1.46304
          CHANNELS 3 Zrotation Xrotation Yrotation
          JOINT lForeArm
          {
            OFFSET 28.1742 -1.7115 0.48768
            CHANNELS 3 Zrotation Xrotation Yrotation
            JOINT lHand
            {
              OFFSET 22.5879 0.773209 7.07136
              CHANNELS 3 Zrotation Xrotation Yrotation
              JOINT lThumb1
              {
                OFFSET 1.2192 -0.487915 3.41376
                CHANNELS 3 Zrotation Xrotation Yrotation
                JOINT lThumb2
                {
                  OFFSET 3.37035 -0.52449 3.41376
                  CHANNELS 3 Zrotation Xrotation Yrotation
                  End Site
                  {
                    OFFSET 1.78271 -1.18214 1.43049
                  }
                }
              }
              JOINT lIndex1
              {
                OFFSET 7.75947 0.938293 5.60832
                CHANNELS 3 Zrotation Xrotation Yrotation
                JOINT lIndex2
                {
                  OFFSET 2.54057 -0.884171 1.56538
                  CHANNELS 3 Zrotation Xrotation Yrotation
                  End Site
                  {
                    OFFSET 1.62519 -0.234802 1.16502
                  }
                }
              }
              JOINT lMid1
              {
                OFFSET 8.24714 1.18213 3.41376
                CHANNELS 3 Zrotation Xrotation Yrotation
                JOINT lMid2
                {
                  OFFSET 3.10165 -0.590103 1.0647
                  CHANNELS 3 Zrotation Xrotation Yrotation
                  End Site
                  {
                    OFFSET 2.48547 -0.328903 0.83742
                  }
                }
              }
              JOINT lRing1
              {
                OFFSET 8.82822 0.546677 1.51678
                CHANNELS 3 Zrotation Xrotation Yrotation
                JOINT lRing2
                {
                  OFFSET 2.60934 -0.819778 -0.0198488
                  CHANNELS 3 Zrotation Xrotation Yrotation
                  End Site
                  {
                    OFFSET 2.33842 -0.294052 0.168128
                  }
                }
              }
              JOINT lPinky1
              {
                OFFSET 8.27202 -0.0477905 -0.4584
                CHANNELS 3 Zrotation Xrotation Yrotation
                JOINT lPinky2
                {
                  OFFSET 1.82734 -0.647385 -0.700984
                  CHANNELS 3 Zrotation Xrotation Yrotation
                  End Site
                  {
                    OFFSET 1.69225 -0.51767 -0.607171
                  }
                }
              }
            }
          }
        }
      }
    }
  }
  JOINT rButtock
  {
    OFFSET -8.77824 4.35084 1.2192
    CHANNELS 3 Zrotation Xrotation Yrotation
    JOINT rThigh
    {
      OFFSET 0 -1.70687 -2.19456
      CHANNELS 3 Zrotation Xrotation Yrotation
      JOINT rShin
      {
        OFFSET 0 -36.8199 0.73152
        CHANNELS 3 Zrotation Xrotation Yrotation
        JOINT rFoot
        {
          OFFSET 0.73152 -45.1104 -5.12064
          CHANNELS 3 Zrotation Xrotation Yrotation
          End Site
          {
            OFFSET -1.1221 -3.69964 12.103
          }
        }
      }
    }
  }
  JOINT lButtock
  {
    OFFSET 8.77824 4.35084 1.2192
    CHANNELS 3 Zrotation Xrotation Yrotation
    JOINT lThigh
    {
      OFFSET 0 -1.70687 -2.19456
      CHANNELS 3 Zrotation Xrotation Yrotation
      JOINT lShin
      {
        OFFSET 0 -36.8199 0.73152
        CHANNELS 3 Zrotation Xrotation Yrotation
        JOINT lFoot
        {
          OFFSET -0.73152 -45.1104 -5.12064
          CHANNELS 3 Zrotation Xrotation Yrotation
          End Site
          {
            OFFSET 1.1221 -3.69964 12.103
          }
        }
      }
    }
  }
}
MOTION
Frames:	8
Frame Time:	0.03333
0.0 0.0 0.0 0.0 0.0 0.0 0.0 0.0 0.0 0.0 0.0 0.0 0.0 0.0 0.0 0.0 0.0 0.0 0.0 0.0 0.0 0.0 0.0 0.0 0.0 0.0 0.0 0.0 0.0 0.0 0.0 0.0 0.0 0.0 0.0 0.0 0.0 0.0 0.0 0.0 0.0 0.0 0.0 0.0 0.0 0.0 0.0 0.0 0.0 0.0 0.0 0.0 0.0 0.0 0.0 0.0 0.0 0.0 0.0 0.0 0.0 0.0 0.0 0.0 0.0 0.0 0.0 0.0 0.0 0.0 0.0 0.0 0.0 0.0 0.0 0.0 0.0 0.0 0.0 0.0 0.0 0.0 0.0 0.0 0.0 0.0 0.0 0.0 0.0 0.0 0.0 0.0 0.0 0.0 0.0 0.0 0.0 0.0 0.0 0.0 0.0 0.0 0.0 0.0 0.0 0.0 0.0 0.0 0.0 0.0 0.0 0.0 0.0 0.0 0.0 0.0 0.0 0.0 0.0 0.0 0.0 0.0 0.0 0.0 0.0 0.0 0.0 0.0 0.0 0.0 0.0 0.0
0.0206 63.4653 -0.2052 -0.21886 50.195122 -1.11859 -3.027439 0.239805 91.811501 -5.390061 -13.145695 146.80904 7.220101 -19.921485 59.146466 35.481726 -23.604359 41.459176 -120.749666 -10.890615 -19.032271 -36.207594 2.840413 -8.673482 76.601422 19.005741 8.769162 10.307953 -44.836015 4.386404 114.228312 72.278912 17.323428 174.541148 -21.409147 28.806069 9.872533 2.812897 43.453627 91.766578 79.627461 126.48153 -72.353097 -27.649744 -33.890511 21.530192 35.448514 -179.93232 -24.385805 -15.523453 -82.314375 -41.227964 -45.969552 -93.208731 -52.824937 -8.533264 -95.299098 -39.138912 57.889985 22.038107 67.331945 -10.972455 -52.690858 -20.960858 63.389606 -4.258394 60.11754 27.953194 -146.1663 156.700867 -6.397175 -171.031651 -53.13799 -83.145959 148.247755 -41.57367 -50.857482 39.640865 -137.21164 -18.107489 -67.81628 -59.173682 -51.774094 176.758383 34.638057 -71.973549 -9.265392 -22.208375 66.645739 -68.540418 14.876243 -16.8757 140.996592 145.654979 -36.730333 -138.958313 -88.396379 6.420474 83.401672 -102.566866 -61.934217 -87.392452 -164.998667 26.764101 57.086859 143.112211 -10.761476 129.922968 53.560131 -0.111551 95.985334 9.732688 53.519359 -15.730529 7.105066 -2.434351 86.291066 -36.66229 -52.732525 144.517865 -42.808368 14.191472 -97.591488 6.386654 41.41335 167.569265 7.259818 -0.453585 98.98897 -76.451931 31.105862 82.705733
-2.8297 60.5931 -3.2190000000000003 -17.584287 -35.651108 11.281307 16.983626 20.095072 -96.516531 14.91054 -4.980432 96.472868 -0.688618 22.566978 44.825097 -18.480707 -24.329261 -24.527492 73.681132 -5.058194 -6.748034 43.68499 12.832377 31.3431 -163.990628 -23.689515 153.558341 -80.276399 40.378009 28.964115 -35.453183 -14.09306 -158.874014 -170.913255 -30.325341 138.984927 -153.918779 -12.347007 83.270408 -55.633157 34.924683 27.560882 174.961782 -50.420688 82.656863 14.211327 -13.29036 -3.704261 -160.551792 -41.527619 138.323193 -1.463922 8.663692 14.513821 -90.401496 38.116599 117.758186 48.358663 45.663999 -4.068636 -81.707189 -33.24703 -12.259861 92.457505 -48.726527 -21.458807 161.739936 65.193398 -163.045187 44.527167 36.39573 -7.629999 7.195429 -29.252701 88.900735 -154.90785 -43.025511 -137.702864 166.04404 -14.899272 -81.607618 174.372947 -26.768611 -109.075504 19.739744 6.459599 -16.196607 -2.911665 18.266991 -1.402406 151.98937 -10.926433 -129.861935 14.85291 21.933565 -59.845999 178.670292 -23.924192 179.945356 37.86334 7.817225 40.504013 129.293543 8.572256 119.749548 95.176541 40.598754 161.960342 -29.268885 15.330958 -5.54318 15.055776 -24.595649 -61.171548 -53.04462 26.375114 74.407064 -44.787803 -10.153421 -16.233504 91.345871 63.118884 44.814972 -119.411154 -32.124449 -19.078092 73.636395 65.475928 8.214367 -72.436876 -81.962797 -174.809277
-2.9995000000000003 53.532500000000006 -3.8153 -18.37244 -34.820647 10.798695 3.635267 21.70292 57.053651 -7.36406 -16.404146 -46.318779 7.816081 24.286016 77.219607 -35.102843 -1.926425 -56.697056 61.095093 -25.584493 -42.086222 -60.324829 -24.31725 40.683778 -158.977575 6.65121 163.76323 -75.585883 15.101298 54.999855 2.890191 -11.72841 -141.38639 -162.238541 7.860375 138.588065 -175.635751 -5.117041 70.90081 24.972375 -59.235866 57.812676 -45.023994 37.248466 36.240043 -160.249916 82.985402 97.875525 162.142461 61.412942 169.843201 -54.593601 -28.400004 -18.473936 29.765663 -14.876226 23.397377 104.596089 79.161784 -91.160691 -144.967221 -3.753653 -136.381042 -63.201795 -23.790845 -35.826808 8.068908 -19.109754 9.351682 101.547337 5.548126 -128.659158 163.597092 0.946606 144.557383 -5.975333 54.824101 -4.093707 14.491593 43.309775 0.05266 65.933469 -15.96313 -9.070659 13.473427 14.486992 -3.130139 24.186523 70.685135 -15.313748 158.641368 -40.171315 -158.137482 177.76688 -43.390895 -90.48806 -16.08802 -3.86845 -3.982668 -151.708252 56.583209 176.569943 70.534475 74.486385 -120.680461 139.146336 13.938315 71.464801 -7.192394 1.027124 11.537036 -13.573723 0.25153 89.315858 51.829416 -18.789767 -86.511516 34.988098 -54.955184 -16.562631 -129.912346 62.136743 -50.370579 -164.619472 -15.509906 -43.122328 -94.519065 61.120927 -133.626996 -127.307445 -25.11694 139.510255
-3.2836 50.2506 -3.5095 -15.493386 -33.381316 11.817367 0.697407 13.077245 155.288399 -15.902722 5.088452 -145.708973 2.351381 35.637002 142.048378 -27.659806 39.915471 -111.735883 84.97952 -1.97168 -2.152442 -30.373603 -9.695116 34.70083 4.974277 -40.707102 -0.764887 -71.428178 -22.31937 -87.634155 0.157174 -12.601474 -144.513613 -170.151066 1.867683 146.028646 -40.497203 1.460357 2.315702 -60.946118 -73.374404 177.192803 -134.255755 16.814787 94.778989 -150.978693 -80.216655 122.923794 -29.573261 49.68512 -7.284164 -171.705475 9.757062 103.537334 -125.553854 28.153325 154.471974 -146.603926 50.719562 160.650297 42.669783 54.325593 -7.232016 -21.173475 3.490911 7.838761 2.724221 -34.254513 14.884783 99.166048 -2.410173 -135.569035 0.806917 -18.731007 64.406545 -96.662797 -66.012387 -97.932862 155.203007 -43.158012 -125.514001 112.897798 -51.394835 -162.10675 -172.266146 -38.625693 -127.066123 -157.74709 -64.03361 -150.132582 -8.530686 -6.0833 3.133309 60.583176 72.185641 -25.51254 -39.921816 13.415011 -16.309968 -112.867811 59.028433 130.925031 -13.438363 2.747479 -22.159537 44.220192 -6.735629 75.562791 17.269505 24.755993 71.014805 -34.86637 27.552548 -72.011465 19.404083 51.823793 51.427436 -56.095962 -46.872 -125.646592 67.773788 62.07122 72.940665 -119.835326 -32.342354 157.595513 -121.785934 -75.31866 -94.510671 104.603631 0.056629 -175.348078
-3.6649000000000003 48.9144 -3.5159000000000002 -13.26528 -31.381642 13.973679 -0.157299 2.8917 160.801899 -13.908056 1.548927 -155.722602 -15.809256 24.234639 -57.683965 33.784396 -5.67151 90.06196 70.155196 19.040494 26.863556 13.772415 5.029653 39.969724 -160.798412 -13.323947 150.035817 99.135946 -15.653299 130.690654 -21.980456 -41.920968 94.569388 -2.237582 -40.14667 -5.953383 112.353447 -52.61299 83.522401 -159.697798 39.100166 122.430787 -131.366839 10.512304 71.701206 -12.337779 33.058669 45.711661 -138.502402 50.650592 109.747573 -0.091858 -20.772519 21.173767 -92.828228 53.467089 105.010284 26.272577 35.288306 4.711946 -21.808828 -19.387715 -32.026967 -1.176153 55.828852 51.246584 6.246857 45.319643 -6.21553 -125.63883 -12.160174 -129.338978 139.121157 29.302102 -115.246374 -28.598592 -51.12125 -31.368736 51.869135 68.483773 -38.158647 158.668276 10.502257 -66.315372 -15.79225 -56.709397 0.031509 155.603584 40.008527 -156.222365 9.708399 18.539436 -15.347256 -175.469802 77.956013 158.833328 115.575665 12.812789 -175.261619 -30.052751 -6.93532 -3.646576 -13.634998 -5.931814 4.647222 153.151796 -1.263964 110.085477 -64.108519 12.707725 -17.138435 44.598485 3.367595 82.34789 46.579129 20.798264 -107.684246 -19.423996 -15.455805 7.898001 16.905621 -15.603703 23.879722 39.295553 -62.060116 -28.734287 -92.363903 29.172513 -157.095759 175.71485 78.916669 100.71014
-3.8434999999999997 47.7803 -3.5554 -12.890479 -28.474431 14.938334 1.170315 0.601212 90.337718 -5.639604 -11.37835 -85.918303 -13.07633 19.126978 -41.610283 27.450972 -9.229709 72.013254 52.329966 15.733055 31.414541 47.72997 7.061948 15.880313 -83.691361 58.548464 86.818835 -90.23707 -6.469237 141.578483 172.410725 7.215698 -68.465622 -15.735192 -10.131811 -8.760143 -18.593244 1.749018 -6.720482 14.232138 11.855094 8.442249 108.715376 -45.212798 78.960896 -150.580059 -76.212973 -167.720045 1.053032 -10.763953 17.676474 -158.509283 24.291733 172.089722 -110.665834 32.363955 120.639423 16.363657 44.489675 24.441345 -96.826691 -24.950681 -104.910091 -87.985961 60.495143 -179.365911 152.055737 15.537971 -160.969688 67.224044 -37.351885 64.54444 171.43507 -32.150877 157.29077 6.762035 47.198411 -9.224611 163.34252 -44.29797 -105.307207 34.93195 24.290354 0.073779 135.560202 15.586004 -113.631753 5.881863 15.301222 -6.049357 170.803015 -23.152138 -121.404902 -134.954993 -14.875523 -98.581241 139.937243 -9.576318 170.304351 42.913473 -65.851139 55.962913 146.60218 28.543839 118.965686 178.129853 79.192252 113.32989 77.136813 18.598006 7.3293 -93.282943 12.609084 -104.042027 -43.655967 6.737324 100.237212 39.284099 -54.262087 -38.334657 3.098692 -26.904379 -1.910594 58.200741 -43.911914 54.898934 87.435261 74.889526 15.935313 -30.989154 -44.298919 -134.109986
-3.7944 47.4743 -3.376 -13.397658 -25.974252 14.524275 4.433857 2.364148 61.024566 -1.545656 -10.091276 -56.17698 -12.823112 29.368959 -124.041096 25.016863 33.847321 138.088738 41.517018 11.345656 29.370611 54.400331 -8.338444 -16.14574 -160.604963 -38.820957 162.29071 -65.724423 7.326263 19.531233 16.329356 -33.282765 -136.996191 -146.488346 29.42214 119.750777 -8.248288 4.457601 5.312014 -12.347508 29.260134 23.95149 7.569074 -36.182768 21.617905 -18.53005 -63.433885 -100.455701 24.921631 -25.882484 24.315121 -12.630116 24.573848 -34.277932 -100.893256 32.76817 111.397255 64.768535 -68.500593 31.148171 -115.042113 6.409253 -117.317285 171.931257 67.489847 -52.579381 157.26114 -7.981272 -164.117489 105.347392 -36.493708 112.802824 -2.497776 42.979578 52.577366 -140.330673 -42.371056 -133.15164 7.555343 42.63297 -4.878171 -166.084523 -47.114358 -79.409082 168.574142 -63.73169 -126.809081 4.030585 27.832295 -16.718966 -6.346322 -5.137296 -18.99411 9.418973 -12.549918 43.812538 83.132287 -62.24063 83.769552 -70.419352 35.961295 39.091767 122.838851 1.431931 100.927372 -40.22621 0.361199 2.489491 -58.038215 65.20333 -40.504744 61.30287 -3.163697 93.751733 22.55748 43.393 -156.581142 153.180405 -38.046013 -98.417581 6.907599 -26.858928 5.725101 49.816579 -50.575775 39.151314 47.501458 81.413011 12.11364 -26.119136 28.104485 -46.885704
